<?xml version="1.0" encoding="UTF-8"?>
<!-- Generator: Adobe Illustrator 24.1.2, SVG Export Plug-In . SVG Version: 6.00 Build 0)  -->
<svg version="1.1" id="svg2" xmlns:cc="http://creativecommons.org/ns#" xmlns:dc="http://purl.org/dc/elements/1.1/" xmlns:rdf="http://www.w3.org/1999/02/22-rdf-syntax-ns#" xmlns:svg="http://www.w3.org/2000/svg" xmlns="http://www.w3.org/2000/svg" xmlns:xlink="http://www.w3.org/1999/xlink" x="0px" y="0px" viewBox="0 0 477.4 635.7" style="enable-background:new 0 0 477.4 635.7;" xml:space="preserve"><link xmlns="" type="text/css" id="dark-mode" rel="stylesheet" href=""/><style xmlns="" type="text/css" id="dark-mode-custom-style"/>
<style type="text/css">
	.st0{fill:#FFFFFF;}
</style>
<g id="g10" transform="matrix(1.3333333,0,0,-1.3333333,0,635.73333)">
	<g id="g12" transform="scale(0.1)">
		<path id="path14" class="st0" d="M1615.9,3780.4c9.8-7.5,21.3-11.7,32.6-11.7c15.4,0,29.7,6.6,40.3,19.1    c7.7,10.1,11.5,21.5,11.5,33.3c0,14.5-6.7,29.1-19.2,40l-994.6,811.7c-40.1,32.5-83.6,56.4-128.2,71.8h-0.2    c-44.7,16-90.4,23.5-135.6,23.5c-109.2,0-214-42.8-292.4-116.8c-39.3-36.8-71.6-81.5-94.5-133.3l0,0    C13.2,4467,0.7,4410.1,0,4349.1v-1.6v-0.8l0,0c0-126.9,56.9-246,154.6-326.1l1.8-1.1l0,0l882.6-720.2l0,0    c9.7-7.7,21.5-11.3,32.9-11.3c15.3,0,29.9,6.7,40.2,19.2c7.7,9.6,11.8,20.8,11.8,32.5c0,14.6-6.7,29.8-18.8,39.7l-884.6,721.2    c-73.9,60.3-116.7,150.1-116.9,245.4v0.7c0.2,47.9,9.9,91.4,26.7,129.4c25.2,57.6,67.8,104.6,118.9,137.1c51,33,111.9,51,172.6,51    h1.4l0,0c33.8,0,68-5.5,101.1-17.3c33.2-11.5,66.2-29.4,96.8-54.6L1615.9,3780.4"/>
		<path id="path16" class="st0" d="M2.4,420.6c0-61.7,13-119.6,35.6-170.9c34.2-76.9,90.4-139.6,158-182.7    C263.9,23.5,343.2,0,424.8,0h1.1c45.1,0,90.6,7.6,134.9,22.6c44.5,16,88.2,39.6,127.9,72.9l991.4,808.9l844.2,689.5l967.8,789.1    l-938.9,766.5c-9.6,7.9-21.4,11.8-32.3,11.8c-15.4,0-30.2-6.4-40.5-18.9c-7.7-10.1-11.9-21.4-11.9-32.8c0-15.3,6.4-29.9,18.9-40.4    l841.1-686.2l-869.5-709.5l-844.4-689L623.6,175.2c-31-25.6-63.8-43.5-96.9-54.7c-33.7-11.7-67.8-17.2-102-17.2H424    c-81.5,0-161.3,32.6-220.3,88.2c-30,27.6-54,61.5-70.8,99.6v0.8c-16.8,38-26.3,81.2-26.9,128.7c0,95.5,42.9,185.3,116.5,245.2    l895.2,731.1l834,681.1l374.5,305.1l-364.3,297.8c-9.5,7.8-21.1,11.7-32.6,11.7c-15.1,0-29.9-6.3-40-19.2    c-8.1-10.1-12-21.4-12-32.5c0-15.2,6.6-29.9,19-40.7l266.3-217.1L1886.3,2158l-834.5-681.6L157.7,745.9    C59.5,667,2.4,547,2.4,420.6"/>
		<path id="path18" class="st0" d="M3580.7,4346.7L3580.7,4346.7c0,61.6-12.5,120-35.4,171.3c-34.7,77.3-90.3,139.3-158,182.7    c-68.1,43.1-147.5,67.4-229,67.4c-45.3,0-91.1-7.5-135.7-23.5l0,0c-44.8-15.4-88.5-39.3-128.5-71.8l-964.8-787.4l-871.6-710.7    l-969-791.6l941.6-768.3c9.4-7.6,21.1-11.8,32.2-11.8c15.1,0,30.4,6.7,40.4,19.2c7.9,10.1,11.8,20.8,11.8,32.5    c0,15.7-6.7,30.2-19.1,40.4l-843.5,688l871.2,710.9l871.6,711l965.1,787.3c30.6,25.1,63.3,43.1,96.7,54.6    c33.5,11.8,67.5,17.3,101.6,17.3l0,0h0.5c81.7,0,161.8-32.6,220.7-87.8c29.7-28.4,54.1-62,71.3-100.3h0.3    c16.2-38,26.3-81.6,26.3-129.4l0,0c0-95.5-42.7-185.7-116.8-246l-883.1-719.8l-845.8-689.5l-376.9-308.3l370.2-302.3    c9.7-7.5,21-11.3,32.8-11.3c14.7,0,29.9,6.6,39.9,18.8l0,0c8.1,9.6,11.7,21.5,11.7,32.8c0,15-6.5,29.6-18.8,40l-272.3,222    l278.7,227.9l846.1,689.9l883,719.7c97.7,80,154.7,198.8,154.7,325.1v0.4L3580.7,4346.7"/>
		<path id="path20" class="st0" d="M3423.3,745.9l-879.6,718.4c-9.3,7.5-21,11.7-32.5,11.7c-15,0-30-6.7-40.1-18.8    c-7.9-9.8-11.7-21.4-11.7-32.6c0-15.1,6.2-30.1,19-40.3l879.7-718.5c73.6-59.9,116.6-149.7,116.6-245.2    c0-47.5-10.2-90.6-27.1-128.7c-25.2-58.4-67.1-105.4-118.8-138c-51.2-32.2-111.3-50.6-172.4-50.6h-0.4l0,0h-0.3    c-33.7,0-68.2,5.5-101.5,17.2c-33.6,11.1-66.2,29.1-96.9,54.7l-995.5,812.4c-9.5,7.9-21.3,12.1-32.6,12.1    c-15.1,0-30.1-6.6-40-19.2c-8.1-9.3-12-21-12-32.1c0-15.1,6.6-30.1,19.3-40.7l995.7-812.2c39.7-33.2,83.2-56.9,127.7-72.9l0,0    c44.9-15,90.8-22.6,135.8-22.6c108.9,0,213.6,42.2,291.9,116.3c39.4,37.2,72.3,81.9,94.8,133.3c22.6,51.3,35.6,108.8,35.6,170.6    v0.4C3578.1,547,3521.3,667,3423.3,745.9l14.2,17.2L3423.3,745.9"/>
	</g>
</g>
</svg>